<svg width="72" height="72" viewBox="0 0 72 72" fill="none" xmlns="http://www.w3.org/2000/svg">
<g id="Group">
<path id="Vector" fill-rule="evenodd" clip-rule="evenodd" d="M72 72H0C0 72 25.2229 69.1084 29.5482 61.1154C33.5163 53.78 32.5895 41.29 32.5074 41.203C32.4591 41.1546 32.4157 41.1063 32.3722 41.0579C32.2322 40.908 32.0971 40.763 31.9474 40.6324C31.5081 40.2456 31.1413 39.7282 30.8034 39.2446C30.5089 38.8288 30.3158 38.3259 30.0068 37.9004C29.7172 37.5039 29.3696 37.1605 29.1089 36.7253C29.0172 36.5754 28.8676 36.4352 28.829 36.2515C28.8821 36.1983 28.9352 36.1548 28.9883 36.1209C29.2586 35.9323 29.5289 35.9323 29.78 36.0339C30.1951 36.1983 30.562 36.6335 30.7889 36.9188L30.7937 36.9236C30.8323 36.972 30.8661 37.03 30.8999 37.088C31.0158 37.2863 31.122 37.4942 31.3488 37.499C31.6192 37.2379 31.6385 36.6238 31.5468 36.0387C31.5323 35.942 31.513 35.8453 31.4937 35.7486C31.4068 35.3521 31.1751 34.8444 30.9385 34.356C30.8275 34.119 30.7116 33.8869 30.6103 33.6742C30.5475 33.5436 30.4123 33.2583 30.2868 32.9343C30.0648 32.3589 29.8958 31.6626 30.311 31.5321C30.6827 31.4112 30.8854 31.8077 31.0737 32.1365C31.4985 32.8812 31.7157 33.4614 32.0488 34.1529C32.1067 34.2738 32.1743 34.4333 32.2516 34.5832C32.3771 34.8298 32.5171 35.0523 32.6426 35.0233C32.8115 34.9894 32.7874 34.443 32.7584 33.974C32.7488 33.8676 32.7439 33.766 32.7343 33.6742C32.6957 33.1616 32.6426 32.6345 32.6088 32.1558C32.5605 31.5224 32.2612 30.2217 32.9274 30.1878C33.2943 30.1685 33.4053 30.3909 33.5018 30.9035C33.6805 31.827 33.748 32.9634 33.888 33.8386C33.9556 34.2496 34.0425 34.9072 34.308 34.9266C34.5783 34.9459 34.6604 34.3801 34.7473 34.032C34.839 33.6645 34.9356 33.2583 35.008 32.8618C35.0997 32.3638 35.1045 30.7149 35.7514 30.7487C36.2148 30.7681 36.1376 31.4644 36.1134 31.7448C36.07 32.209 36.0072 32.6249 35.9541 32.9489C35.9107 33.2438 35.8431 33.6113 35.7852 33.9691C35.6838 34.6364 35.6259 35.2699 35.8335 35.3376C36.0024 35.3956 36.2148 35.1442 36.4224 34.8153C36.601 34.5252 36.7748 34.1771 36.9051 33.9256C37.1706 33.4276 37.6003 32.3976 38.0975 32.6974C38.1554 32.7361 38.194 32.7941 38.2037 32.8666C38.2616 33.1858 37.9527 33.8144 37.6147 34.4817C37.3637 34.9797 37.0934 35.502 36.9486 35.9275C36.9486 35.9323 36.9437 35.942 36.9437 35.9468C36.7313 36.5803 36.77 37.3975 36.7024 38.1857C36.6976 38.2582 36.6879 38.3307 36.6831 38.3984C36.6589 38.6015 36.6396 38.8481 36.6155 39.1044C36.5672 39.6024 36.4996 40.1537 36.3596 40.5454C36.3065 40.6953 36.2245 40.8161 36.1376 40.908C36.1328 40.9129 36.1328 40.9467 36.1376 40.9999C36.181 41.4012 35.679 55.0566 40.0719 63.4751C43.5427 70.1384 72 72 72 72Z" fill="#3D3D3D"/>
<g id="Group_2">
<g id="Group_3">
<path id="Vector_2" d="M33.1249 23.1328C33.2648 23.2682 33.3711 23.4084 33.4724 23.5438C33.569 23.6792 33.6607 23.8194 33.7379 23.9548C33.8924 24.2305 34.0131 24.5061 34.1096 24.7817C34.2979 25.3329 34.3751 25.8794 34.38 26.4306C34.38 26.9818 34.3027 27.5282 34.1145 28.0795C34.0227 28.3551 33.9021 28.6307 33.7428 28.9063C33.6655 29.0417 33.5786 29.182 33.4773 29.3174C33.3759 29.4528 33.2697 29.593 33.1297 29.7284C32.9897 29.593 32.8787 29.4528 32.7821 29.3174C32.6807 29.182 32.5938 29.0417 32.5166 28.9063C32.3621 28.6307 32.2414 28.3551 32.1449 28.0795C31.9566 27.5282 31.8794 26.9818 31.8794 26.4306C31.8794 25.8794 31.9615 25.3329 32.1497 24.7817C32.2414 24.5061 32.3621 24.2305 32.5214 23.9548C32.5987 23.8194 32.6856 23.6792 32.7869 23.5438C32.8787 23.4084 32.9849 23.273 33.1249 23.1328Z" fill="#1C442A"/>
<path id="Vector_3" d="M33.1249 15.604C33.2648 15.7394 33.3711 15.8796 33.4724 16.015C33.569 16.1504 33.6607 16.2906 33.7379 16.426C33.8924 16.7017 34.0131 16.9773 34.1096 17.2529C34.2979 17.8041 34.3751 18.3505 34.38 18.9018C34.38 19.453 34.3027 19.9994 34.1145 20.5507C34.0227 20.8263 33.9021 21.1019 33.7428 21.3775C33.6655 21.5129 33.5786 21.6532 33.4773 21.7886C33.3759 21.9239 33.2697 22.0642 33.1297 22.1996C32.9897 22.0642 32.8787 21.9239 32.7821 21.7886C32.6807 21.6532 32.5938 21.5129 32.5166 21.3775C32.3621 21.1019 32.2414 20.8263 32.1449 20.5507C31.9566 19.9994 31.8794 19.453 31.8794 18.9018C31.8794 18.3505 31.9615 17.8041 32.1497 17.2529C32.2414 16.9773 32.3621 16.7017 32.5214 16.426C32.5987 16.2906 32.6856 16.1504 32.7869 16.015C32.8787 15.8748 32.9849 15.7394 33.1249 15.604Z" fill="#009444"/>
<path id="Vector_4" d="M38.5556 25.1831C38.3625 25.1976 38.1888 25.2315 38.0246 25.2701C37.8605 25.3088 37.706 25.3572 37.5564 25.4104C37.2619 25.5168 36.9867 25.6473 36.7405 25.7972C36.2433 26.0922 35.8234 26.4597 35.4613 26.8755C35.1041 27.2914 34.8048 27.7604 34.5924 28.302C34.4862 28.5728 34.3993 28.8581 34.3365 29.1675C34.3076 29.3223 34.2834 29.4867 34.2689 29.6559C34.2545 29.8252 34.2496 29.9992 34.2641 30.1975C34.462 30.183 34.631 30.1491 34.8 30.1104C34.9641 30.0718 35.1186 30.0234 35.2682 29.9702C35.5675 29.8638 35.8378 29.7333 36.084 29.5882C36.5812 29.2933 37.0012 28.9258 37.3585 28.5099C37.7157 28.0892 38.0101 27.6202 38.2274 27.0834C38.3336 26.8127 38.4205 26.5274 38.4832 26.2179C38.5122 26.0632 38.5363 25.9036 38.5508 25.7343C38.5605 25.5554 38.5701 25.3765 38.5556 25.1831Z" fill="#1C442A"/>
<path id="Vector_5" d="M51.2132 20.4782C51.0249 20.4347 50.8463 20.4202 50.6773 20.4057C50.5084 20.396 50.3442 20.396 50.1897 20.4057C49.876 20.425 49.5767 20.4686 49.2967 20.5411C48.7319 20.6813 48.2298 20.9086 47.7664 21.2035C47.303 21.4985 46.883 21.866 46.5209 22.3205C46.3423 22.5478 46.1734 22.7992 46.0286 23.0797C45.9561 23.2199 45.8886 23.3698 45.8258 23.5246C45.7631 23.6841 45.71 23.8485 45.6665 24.042C45.8596 24.0855 46.0334 24.1048 46.2023 24.1145C46.3713 24.1242 46.5354 24.1242 46.6899 24.1145C47.0037 24.0951 47.303 24.0516 47.583 23.9791C48.1478 23.8389 48.6498 23.6116 49.1132 23.3118C49.5767 23.012 49.9918 22.6493 50.3539 22.1948C50.5325 21.9675 50.7015 21.7161 50.8463 21.4356C50.9187 21.2954 50.9863 21.1455 51.049 20.9908C51.1166 20.836 51.1745 20.6716 51.2132 20.4782Z" fill="#D4BE29"/>
<path id="Vector_6" d="M42.9679 18.9019C42.7748 18.9164 42.6011 18.9502 42.4369 18.9889C42.2728 19.0276 42.1183 19.0759 41.9687 19.1291C41.6742 19.2355 41.399 19.3661 41.1529 19.516C40.6556 19.8109 40.2357 20.1784 39.8784 20.5943C39.5212 21.0101 39.2219 21.4792 39.0095 22.0207C38.9033 22.2915 38.8164 22.5768 38.7537 22.8911C38.7247 23.0458 38.7006 23.2102 38.6861 23.3795C38.6716 23.5487 38.6668 23.7228 38.6861 23.9211C38.884 23.9066 39.053 23.8727 39.2219 23.834C39.386 23.7953 39.5405 23.747 39.6902 23.6938C39.9895 23.5874 40.2598 23.4569 40.506 23.307C41.0032 23.012 41.4232 22.6445 41.7804 22.2286C42.1376 21.808 42.4321 21.3389 42.6493 20.8022C42.7555 20.5314 42.8424 20.2461 42.9052 19.9366C42.9341 19.7819 42.9583 19.6223 42.9728 19.4531C42.9776 19.2742 42.9872 19.0953 42.9679 18.9019Z" fill="#009444"/>
<path id="Vector_7" d="M37.3202 18.9019C37.1464 18.9889 37.0016 19.0856 36.8616 19.1871C36.7264 19.2887 36.6009 19.3902 36.485 19.4966C36.2533 19.7094 36.0554 19.9366 35.8816 20.1687C35.5341 20.633 35.2879 21.131 35.1189 21.6581C34.9499 22.1803 34.8582 22.7315 34.8679 23.3118C34.8727 23.6019 34.9017 23.9017 34.9693 24.2112C35.003 24.3659 35.0417 24.5255 35.0948 24.6851C35.1479 24.8446 35.2106 25.009 35.3023 25.1831C35.4761 25.0961 35.6258 24.9994 35.7609 24.8978C35.8961 24.7963 36.0216 24.6947 36.1423 24.5884C36.374 24.3756 36.5768 24.1483 36.7457 23.9162C37.0933 23.452 37.3347 22.9491 37.5036 22.4269C37.6726 21.9047 37.7643 21.3534 37.7546 20.7732C37.7498 20.4831 37.7208 20.1833 37.6533 19.8738C37.6195 19.719 37.5809 19.5595 37.5278 19.3999C37.4747 19.2403 37.4119 19.0759 37.3202 18.9019Z" fill="#006838"/>
<path id="Vector_8" d="M41.3797 13.9697C41.1962 14.0374 41.0418 14.1196 40.8921 14.2018C40.7473 14.284 40.6073 14.3759 40.4818 14.4678C40.2259 14.6515 40.0039 14.8546 39.806 15.0674C39.4101 15.4929 39.1108 15.9571 38.8791 16.46C38.6522 16.9629 38.4977 17.4948 38.4398 18.0702C38.4108 18.3603 38.406 18.6601 38.435 18.9744C38.4495 19.134 38.4736 19.2936 38.5074 19.458C38.5412 19.6272 38.5846 19.7965 38.657 19.9802C38.8405 19.9125 38.995 19.8351 39.1446 19.7481C39.2894 19.6659 39.4294 19.574 39.5549 19.4822C39.8108 19.2984 40.0328 19.0953 40.2308 18.8826C40.6266 18.457 40.9259 17.9928 41.1528 17.4899C41.3797 16.9871 41.5293 16.4552 41.5873 15.8749C41.6162 15.5848 41.6211 15.285 41.5921 14.9707C41.5776 14.8111 41.5535 14.6515 41.5197 14.4871C41.4907 14.3227 41.4473 14.1535 41.3797 13.9697Z" fill="#D4BE29"/>
<path id="Vector_9" d="M36.8036 11.6389C36.6394 11.7405 36.4994 11.8517 36.3739 11.9629C36.2484 12.0741 36.1325 12.1902 36.0263 12.3062C35.8139 12.5383 35.6353 12.7801 35.4809 13.0267C35.1767 13.5199 34.9788 14.0421 34.8533 14.574C34.7326 15.1108 34.6892 15.662 34.7471 16.2423C34.7761 16.5324 34.834 16.8274 34.9257 17.1272C34.974 17.2771 35.0271 17.4318 35.0947 17.5865C35.1623 17.7413 35.2395 17.9008 35.3457 18.0652C35.5146 17.9637 35.6498 17.8525 35.7802 17.7413C35.9057 17.6301 36.0215 17.514 36.1326 17.398C36.345 17.1659 36.5236 16.9241 36.678 16.6775C36.9822 16.1843 37.1801 15.662 37.3008 15.1253C37.4215 14.5885 37.4649 14.0325 37.4021 13.4571C37.3732 13.1669 37.3153 12.872 37.2235 12.5722C37.1801 12.4223 37.1222 12.2675 37.0594 12.1128C36.9822 11.9629 36.9049 11.8033 36.8036 11.6389Z" fill="#D4BE29"/>
<path id="Vector_10" d="M48.9684 25.3039C48.7898 25.2217 48.6257 25.1637 48.4615 25.1153C48.2974 25.067 48.1381 25.0331 47.9836 25.009C47.6747 24.9558 47.3754 24.9364 47.0809 24.9413C46.5016 24.9558 45.9561 25.067 45.4396 25.2507C44.9231 25.4393 44.4355 25.7004 43.9817 26.0631C43.7549 26.2468 43.5376 26.4548 43.3349 26.6965C43.2335 26.8174 43.1321 26.948 43.0404 27.0882C42.9439 27.2284 42.8521 27.3783 42.7749 27.5573C42.9535 27.6443 43.1176 27.6975 43.2818 27.7458C43.4459 27.7942 43.6052 27.828 43.7597 27.8522C44.0686 27.9054 44.3728 27.9247 44.6624 27.9199C45.2417 27.9054 45.7872 27.7942 46.2989 27.6056C46.8154 27.417 47.303 27.1511 47.7567 26.7884C47.9836 26.6047 48.2008 26.3967 48.4036 26.1598C48.505 26.0389 48.6063 25.9084 48.6981 25.7681C48.7994 25.6279 48.8912 25.478 48.9684 25.3039Z" fill="#009444"/>
<path id="Vector_11" d="M44.4261 23.244C44.233 23.2102 44.0592 23.2053 43.8903 23.2053C43.7213 23.2053 43.5572 23.215 43.4027 23.2343C43.0889 23.2682 42.7944 23.331 42.5193 23.4181C41.9641 23.5922 41.4717 23.8484 41.0276 24.1676C40.5835 24.4916 40.1877 24.8784 39.8497 25.3523C39.6808 25.5892 39.5311 25.8503 39.4008 26.1356C39.338 26.2807 39.2753 26.4306 39.2222 26.595C39.1691 26.7594 39.1256 26.9286 39.0967 27.1221C39.2898 27.1559 39.4636 27.1607 39.6373 27.1656C39.8063 27.1656 39.9704 27.1559 40.1249 27.1366C40.4387 27.1027 40.7332 27.0399 41.0083 26.9528C41.5635 26.7787 42.051 26.5225 42.4951 26.1985C42.9393 25.8745 43.3351 25.4828 43.6682 25.009C43.8371 24.772 43.9868 24.5109 44.1171 24.2256C44.1847 24.0805 44.2426 23.9306 44.2957 23.7711C44.3488 23.6067 44.3971 23.4374 44.4261 23.244Z" fill="#006838"/>
<path id="Vector_12" d="M47.6941 17.1321C47.501 17.1418 47.3273 17.1708 47.1583 17.2094C46.9942 17.2481 46.8349 17.2917 46.6852 17.34C46.3859 17.4416 46.1156 17.5673 45.8597 17.7075C45.3577 17.9928 44.9281 18.3506 44.5612 18.7616C44.1943 19.1726 43.8902 19.6368 43.6633 20.1687C43.5523 20.4347 43.4606 20.7248 43.393 21.0295C43.3592 21.1842 43.335 21.3438 43.3157 21.513C43.3012 21.6822 43.2916 21.8563 43.3012 22.0546C43.4992 22.0449 43.6681 22.0159 43.8371 21.9772C44.0012 21.9385 44.1605 21.895 44.3102 21.8467C44.6095 21.7451 44.8846 21.6194 45.1356 21.4792C45.6377 21.1939 46.0625 20.836 46.4294 20.425C46.7914 20.014 47.0955 19.5498 47.3224 19.0131C47.4335 18.7471 47.5252 18.457 47.5928 18.1524C47.6266 17.9976 47.6507 17.8381 47.67 17.6688C47.699 17.4996 47.7086 17.3255 47.6941 17.1321Z" fill="#D4BE29"/>
<path id="Vector_13" d="M46.7044 12.5577C46.5113 12.5867 46.3424 12.635 46.1831 12.6931C46.0238 12.7463 45.8741 12.8091 45.7293 12.8768C45.4445 13.0122 45.1838 13.1621 44.9473 13.3314C44.4742 13.6698 44.0928 14.0712 43.7694 14.516C43.4508 14.9609 43.1949 15.459 43.026 16.015C42.9439 16.2955 42.8812 16.5856 42.8474 16.8999C42.8329 17.0595 42.8232 17.2191 42.8232 17.3883C42.8232 17.5575 42.8329 17.7365 42.8667 17.9299C43.0598 17.9009 43.2287 17.8525 43.3929 17.7993C43.5522 17.7461 43.7066 17.6833 43.8466 17.6204C44.1315 17.485 44.3921 17.3351 44.6287 17.1659C45.0969 16.8274 45.4831 16.426 45.8017 15.9763C46.1203 15.5266 46.3713 15.0334 46.5403 14.4774C46.6224 14.1969 46.6851 13.9068 46.7189 13.5925C46.7334 13.4329 46.743 13.2733 46.743 13.1041C46.743 12.9252 46.7382 12.7511 46.7044 12.5577Z" fill="#F9ED32"/>
<path id="Vector_14" d="M41.5582 8.48145C41.3748 8.54431 41.2155 8.62167 41.0658 8.70388C40.9162 8.78608 40.781 8.86828 40.6507 8.96016C40.39 9.13907 40.1631 9.33732 39.9604 9.54041C39.5549 9.95626 39.2411 10.4156 39.0046 10.9088C38.768 11.4021 38.5991 11.934 38.5267 12.5094C38.4929 12.7995 38.4832 13.0993 38.5025 13.4136C38.5122 13.5732 38.5315 13.7328 38.5653 13.902C38.5942 14.0712 38.6377 14.2405 38.7004 14.4242C38.8839 14.3614 39.0432 14.284 39.1928 14.2066C39.3425 14.1244 39.4825 14.0422 39.6128 13.9504C39.8735 13.7714 40.1004 13.5732 40.3031 13.3701C40.7086 12.9542 41.0176 12.4949 41.2589 11.9968C41.4955 11.4988 41.6596 10.9717 41.732 10.3915C41.7658 10.1013 41.7755 9.80153 41.7561 9.48722C41.7465 9.32765 41.7272 9.16808 41.6982 8.99884C41.6596 8.83443 41.621 8.66519 41.5582 8.48145Z" fill="#F9ED32"/>
<path id="Vector_15" d="M33.352 8.00262C33.2023 8.12835 33.0865 8.2589 32.9754 8.38946C32.8692 8.52002 32.7679 8.65058 32.681 8.78113C32.5072 9.04225 32.3672 9.3082 32.2513 9.57899C32.0244 10.1157 31.9038 10.6573 31.8651 11.2037C31.8265 11.7501 31.8651 12.3062 32.01 12.8671C32.0824 13.1476 32.1837 13.4328 32.3189 13.7181C32.3865 13.8632 32.4637 14.0034 32.5554 14.1485C32.6472 14.2936 32.7437 14.4386 32.8741 14.5837C33.0237 14.458 33.1444 14.3274 33.2554 14.1969C33.3664 14.0663 33.463 13.9357 33.5499 13.8052C33.7237 13.5441 33.8685 13.2781 33.9795 13.0073C34.2064 12.4706 34.3271 11.929 34.3657 11.3826C34.4043 10.8362 34.3609 10.2801 34.2161 9.71921C34.1436 9.43876 34.0423 9.15346 33.9071 8.86817C33.8395 8.72311 33.7623 8.58288 33.6754 8.43782C33.5788 8.29275 33.4823 8.14769 33.352 8.00262Z" fill="#F9ED32"/>
<path id="Vector_16" d="M33.352 0C33.2023 0.125722 33.0865 0.256279 32.9754 0.386837C32.8692 0.517394 32.7679 0.647952 32.681 0.778509C32.5072 1.03962 32.3672 1.30557 32.2513 1.57636C32.0244 2.1131 31.9038 2.65467 31.8651 3.20107C31.8265 3.74748 31.8651 4.30356 32.01 4.86447C32.0824 5.14493 32.1837 5.43022 32.3189 5.71551C32.3865 5.86058 32.4637 6.00081 32.5554 6.14587C32.6472 6.29093 32.7437 6.436 32.8741 6.58106C33.0237 6.45534 33.1444 6.32478 33.2554 6.19422C33.3664 6.06367 33.463 5.93311 33.5499 5.80255C33.7237 5.54144 33.8685 5.27549 33.9795 5.0047C34.2064 4.46797 34.3271 3.92639 34.3657 3.37999C34.4043 2.83358 34.3609 2.2775 34.2161 1.71659C34.1436 1.43613 34.0423 1.15084 33.9071 0.865547C33.8395 0.720484 33.7623 0.580255 33.6754 0.435191C33.5788 0.290128 33.4823 0.145064 33.352 0Z" fill="#F9ED32"/>
<path id="Vector_17" d="M53.2019 15.3429C53.0088 15.3284 52.8302 15.338 52.6613 15.3525C52.4923 15.367 52.333 15.3961 52.1785 15.4251C51.8696 15.4879 51.5848 15.5798 51.3144 15.691C50.7786 15.9135 50.3152 16.2181 49.9 16.5759C49.4849 16.9386 49.1277 17.3641 48.838 17.867C48.6932 18.1184 48.5677 18.3892 48.4663 18.689C48.4132 18.8389 48.3698 18.9936 48.3311 19.1629C48.2925 19.3273 48.2636 19.5014 48.2539 19.6996C48.4518 19.7141 48.6256 19.7045 48.7946 19.6899C48.9635 19.6754 49.1228 19.6513 49.2773 19.6174C49.5863 19.5546 49.8711 19.4627 50.1414 19.3515C50.6772 19.129 51.1407 18.8244 51.5558 18.4617C51.9661 18.0991 52.3282 17.6736 52.613 17.1707C52.7578 16.9192 52.8833 16.6484 52.9895 16.3486C53.0426 16.1987 53.0861 16.044 53.1247 15.8796C53.1585 15.7104 53.1875 15.5363 53.2019 15.3429Z" fill="#F9ED32"/>
<path id="Vector_18" d="M55.9876 22.1125C55.8089 22.0303 55.64 21.982 55.4759 21.9385C55.3117 21.8949 55.1524 21.8659 54.998 21.8417C54.6842 21.7982 54.3849 21.7837 54.0952 21.7934C53.516 21.8176 52.9753 21.9385 52.4636 22.1367C51.9519 22.335 51.4692 22.6106 51.025 22.9829C50.803 23.1715 50.5906 23.3843 50.3927 23.626C50.2913 23.7469 50.1947 23.8823 50.103 24.0225C50.0113 24.1676 49.9244 24.3175 49.8472 24.4964C50.0258 24.5786 50.1947 24.6318 50.3589 24.6753C50.523 24.7188 50.6823 24.7527 50.8368 24.772C51.1506 24.8204 51.4499 24.8301 51.7395 24.8204C52.3188 24.7962 52.8594 24.6705 53.3711 24.4722C53.8828 24.274 54.3656 23.9984 54.8097 23.626C55.0317 23.4374 55.2441 23.2247 55.4421 22.9829C55.5434 22.862 55.64 22.7266 55.7317 22.5864C55.8234 22.4462 55.9103 22.2963 55.9876 22.1125Z" fill="#F9ED32"/>
<path id="Vector_19" d="M27.7426 25.1831C27.9357 25.1976 28.1095 25.2315 28.2736 25.2701C28.4378 25.3088 28.5922 25.3572 28.7419 25.4104C29.0364 25.5168 29.3115 25.6473 29.5577 25.7972C30.0549 26.0922 30.4749 26.4597 30.837 26.8755C31.1942 27.2914 31.4935 27.7604 31.7059 28.302C31.8121 28.5728 31.899 28.8581 31.9617 29.1675C31.9907 29.3223 32.0148 29.4867 32.0293 29.6559C32.0438 29.8252 32.0486 29.9992 32.0341 30.1975C31.8362 30.183 31.6673 30.1491 31.4983 30.1104C31.3342 30.0718 31.1797 30.0234 31.0301 29.9702C30.7308 29.8638 30.4604 29.7333 30.2142 29.5882C29.717 29.2933 29.297 28.9258 28.9398 28.5099C28.5826 28.0892 28.2881 27.6202 28.0709 27.0834C27.9647 26.8127 27.8778 26.5274 27.815 26.2179C27.7861 26.0632 27.7619 25.9036 27.7475 25.7343C27.733 25.5554 27.7281 25.3765 27.7426 25.1831Z" fill="#1C442A"/>
<path id="Vector_20" d="M23.0454 33.1954C23.2047 33.0842 23.3592 33.002 23.5137 32.9295C23.6681 32.857 23.8178 32.7989 23.9674 32.7457C24.2667 32.6442 24.5564 32.5765 24.846 32.533C25.4205 32.4508 25.9756 32.475 26.5163 32.5765C27.0569 32.678 27.5783 32.857 28.0852 33.1422C28.3362 33.2873 28.5824 33.4566 28.8238 33.6596C28.9444 33.7612 29.0603 33.8724 29.181 33.9981C29.2968 34.1238 29.4127 34.2544 29.5189 34.4188C29.3596 34.53 29.2051 34.6122 29.0506 34.6848C28.8962 34.7573 28.7465 34.8201 28.5969 34.8685C28.2976 34.97 28.0079 35.0377 27.7183 35.0813C27.1438 35.1635 26.5887 35.1393 26.048 35.0377C25.5074 34.9362 24.986 34.7525 24.4791 34.4672C24.2281 34.3221 23.9771 34.1529 23.7405 33.9498C23.6199 33.8482 23.4992 33.737 23.3833 33.6113C23.2675 33.4904 23.1516 33.355 23.0454 33.1954Z" fill="#1C442A"/>
<path id="Vector_21" d="M15.0801 20.4782C15.2683 20.4347 15.447 20.4202 15.6159 20.4057C15.7849 20.396 15.949 20.396 16.1035 20.4057C16.4173 20.425 16.7165 20.4686 16.9965 20.5411C17.5613 20.6813 18.0634 20.9086 18.5268 21.2035C18.9902 21.4985 19.4102 21.866 19.7723 22.3205C19.9509 22.5478 20.1198 22.7992 20.2646 23.0797C20.3371 23.2199 20.4046 23.3698 20.4674 23.5246C20.5302 23.6841 20.5833 23.8485 20.6267 24.042C20.4336 24.0855 20.2598 24.1048 20.0909 24.1145C19.9219 24.1242 19.7578 24.1242 19.5985 24.1145C19.2847 24.0951 18.9854 24.0516 18.7054 23.9791C18.1406 23.8389 17.6386 23.6116 17.1751 23.3118C16.7117 23.012 16.2966 22.6493 15.9345 22.1948C15.7559 21.9675 15.5869 21.7161 15.4421 21.4356C15.3697 21.2954 15.3021 21.1455 15.2394 20.9908C15.1766 20.836 15.1235 20.6716 15.0801 20.4782Z" fill="#D4BE29"/>
<path id="Vector_22" d="M11.8848 26.8949C12.0537 26.7934 12.213 26.7208 12.3675 26.658C12.5268 26.5951 12.6765 26.5419 12.8309 26.4984C13.1351 26.4114 13.4295 26.363 13.7192 26.3388C14.2984 26.2905 14.8488 26.3437 15.3846 26.4742C15.9156 26.6048 16.4321 26.8175 16.9197 27.127C17.1659 27.2818 17.4024 27.4703 17.6293 27.6879C17.7452 27.7991 17.8562 27.9152 17.9672 28.0458C18.0783 28.1763 18.1845 28.3165 18.281 28.4858C18.1121 28.5873 17.9528 28.6599 17.7983 28.7276C17.639 28.7904 17.4845 28.8436 17.3349 28.8871C17.0307 28.9742 16.7363 29.0225 16.4466 29.0515C15.8673 29.0999 15.317 29.0467 14.786 28.9113C14.255 28.7759 13.7385 28.568 13.2509 28.2537C13.0047 28.0989 12.7682 27.9152 12.5413 27.6976C12.4254 27.5864 12.3144 27.4703 12.2034 27.3398C12.0875 27.1996 11.9813 27.0642 11.8848 26.8949Z" fill="#D4BE29"/>
<path id="Vector_23" d="M23.3256 18.9019C23.5187 18.9164 23.6925 18.9502 23.8566 18.9889C24.0207 19.0276 24.1752 19.0759 24.3248 19.1291C24.6193 19.2355 24.8945 19.3661 25.1407 19.516C25.6379 19.8109 26.0579 20.1784 26.4151 20.5943C26.7723 21.0101 27.0716 21.4792 27.284 22.0207C27.3902 22.2915 27.4771 22.5768 27.5399 22.8911C27.5688 23.0458 27.593 23.2102 27.6074 23.3795C27.6219 23.5487 27.6268 23.7228 27.6074 23.9211C27.4095 23.9066 27.2406 23.8727 27.0716 23.834C26.9075 23.7953 26.753 23.747 26.6034 23.6938C26.3041 23.5874 26.0337 23.4569 25.7875 23.307C25.2903 23.012 24.8703 22.6445 24.5131 22.2286C24.1559 21.808 23.8614 21.3389 23.6442 20.8022C23.538 20.5314 23.4511 20.2461 23.3883 19.9366C23.3594 19.7819 23.3352 19.6223 23.3207 19.4531C23.3159 19.2742 23.3111 19.0953 23.3256 18.9019Z" fill="#009444"/>
<path id="Vector_24" d="M28.9737 18.9019C29.1475 18.9889 29.2923 19.0856 29.4323 19.1871C29.5675 19.2887 29.693 19.3902 29.8089 19.4966C30.0406 19.7094 30.2385 19.9366 30.4123 20.1687C30.7598 20.633 31.006 21.131 31.175 21.6581C31.344 22.1803 31.4357 22.7315 31.426 23.3118C31.4212 23.6019 31.3922 23.9017 31.3246 24.2112C31.2909 24.3659 31.2522 24.5255 31.1991 24.6851C31.146 24.8446 31.0833 25.009 30.9916 25.1831C30.8178 25.0961 30.6681 24.9994 30.533 24.8978C30.3978 24.7963 30.2723 24.6947 30.1516 24.5884C29.9199 24.3756 29.7171 24.1483 29.5482 23.9162C29.2006 23.452 28.9592 22.9491 28.7903 22.4269C28.6213 21.9047 28.5296 21.3534 28.5393 20.7732C28.5441 20.4831 28.5731 20.1833 28.6406 19.8738C28.6744 19.719 28.7131 19.5595 28.7662 19.3999C28.8241 19.2403 28.882 19.0759 28.9737 18.9019Z" fill="#006838"/>
<path id="Vector_25" d="M24.9184 13.9697C25.1018 14.0374 25.2563 14.1196 25.4059 14.2018C25.5508 14.284 25.6908 14.3759 25.8163 14.4678C26.0721 14.6515 26.2942 14.8546 26.4921 15.0674C26.8879 15.4929 27.1872 15.9571 27.419 16.46C27.6458 16.9629 27.8003 17.4948 27.8582 18.0702C27.8872 18.3603 27.892 18.6601 27.8631 18.9744C27.8486 19.134 27.8245 19.2936 27.7907 19.458C27.7569 19.6272 27.7134 19.7965 27.641 19.9802C27.4576 19.9125 27.3031 19.8351 27.1535 19.7481C27.0038 19.6659 26.8686 19.574 26.7431 19.4822C26.4873 19.2984 26.2652 19.0953 26.0673 18.8826C25.6715 18.457 25.3722 17.9928 25.1453 17.4899C24.9184 16.9871 24.7687 16.4552 24.7108 15.8749C24.6818 15.5848 24.677 15.285 24.706 14.9707C24.7205 14.8111 24.7446 14.6515 24.7784 14.4871C24.8074 14.3227 24.846 14.1535 24.9184 13.9697Z" fill="#D4BE29"/>
<path id="Vector_26" d="M29.4949 11.6389C29.659 11.7405 29.799 11.8517 29.9245 11.9629C30.05 12.0741 30.1659 12.1902 30.2721 12.3062C30.4845 12.5383 30.6631 12.7801 30.8176 13.0267C31.1217 13.5199 31.3196 14.0421 31.4451 14.574C31.5658 15.1108 31.6093 15.662 31.5513 16.2423C31.5224 16.5324 31.4644 16.8274 31.3727 17.1272C31.3244 17.2771 31.2713 17.4318 31.2038 17.5865C31.1362 17.7413 31.0589 17.9008 30.9527 18.0652C30.7838 17.9637 30.6486 17.8525 30.5183 17.7413C30.3928 17.6301 30.2769 17.514 30.1659 17.398C29.9535 17.1659 29.7749 16.9241 29.6204 16.6775C29.3163 16.1843 29.1183 15.662 28.9977 15.1253C28.877 14.5885 28.8335 14.0325 28.8963 13.4571C28.9252 13.1669 28.9832 12.872 29.0749 12.5722C29.1183 12.4223 29.1763 12.2675 29.2439 12.1128C29.3114 11.9629 29.3887 11.8033 29.4949 11.6389Z" fill="#D4BE29"/>
<path id="Vector_27" d="M17.3252 25.3039C17.5038 25.2217 17.6679 25.1637 17.8321 25.1153C17.9962 25.067 18.1555 25.0331 18.31 25.009C18.6189 24.9558 18.9182 24.9364 19.2127 24.9413C19.792 24.9558 20.3375 25.067 20.854 25.2507C21.3705 25.4393 21.8581 25.7004 22.3119 26.0631C22.5387 26.2468 22.756 26.4548 22.9587 26.6965C23.0601 26.8174 23.1615 26.948 23.2532 27.0882C23.3497 27.2284 23.4415 27.3783 23.5187 27.5573C23.3401 27.6443 23.176 27.6975 23.0118 27.7458C22.8477 27.7942 22.6884 27.828 22.5339 27.8522C22.2201 27.9054 21.9208 27.9247 21.6312 27.9199C21.0519 27.9054 20.5064 27.7942 19.9947 27.6056C19.4782 27.417 18.9906 27.1511 18.5369 26.7884C18.31 26.6047 18.0927 26.3967 17.89 26.1598C17.7886 26.0389 17.6872 25.9084 17.5955 25.7681C17.499 25.6279 17.4073 25.478 17.3252 25.3039Z" fill="#009444"/>
<path id="Vector_28" d="M21.8677 23.244C22.0608 23.2102 22.2346 23.2053 22.4035 23.2053C22.5725 23.2053 22.7366 23.215 22.8911 23.2343C23.2049 23.2682 23.4993 23.331 23.7745 23.4181C24.3296 23.5922 24.822 23.8484 25.2661 24.1676C25.7103 24.4916 26.1061 24.8784 26.444 25.3523C26.613 25.5892 26.7626 25.8503 26.893 26.1356C26.9557 26.2807 27.0185 26.4306 27.0716 26.595C27.1247 26.7594 27.1681 26.9286 27.1971 27.1221C27.004 27.1559 26.8302 27.1607 26.6564 27.1656C26.4875 27.1656 26.3233 27.1559 26.1689 27.1366C25.8551 27.1027 25.5606 27.0399 25.2854 26.9528C24.7303 26.7787 24.2427 26.5225 23.7986 26.1985C23.3545 25.8745 22.9587 25.4828 22.6256 25.009C22.4566 24.772 22.307 24.5109 22.1766 24.2256C22.109 24.0805 22.0511 23.9306 21.998 23.7711C21.9449 23.6067 21.8966 23.4374 21.8677 23.244Z" fill="#006838"/>
<path id="Vector_29" d="M18.5994 17.1321C18.7925 17.1418 18.9663 17.1708 19.1353 17.2094C19.2994 17.2481 19.4587 17.2917 19.6083 17.34C19.9076 17.4416 20.178 17.5673 20.4338 17.7075C20.9359 17.9928 21.3655 18.3506 21.7324 18.7616C22.0993 19.1726 22.4034 19.6368 22.6303 20.1687C22.7413 20.4347 22.833 20.7248 22.9006 21.0295C22.9344 21.1842 22.9585 21.3438 22.9778 21.513C22.9923 21.6822 23.002 21.8563 22.9923 22.0546C22.7944 22.0449 22.6254 22.0159 22.4565 21.9772C22.2923 21.9385 22.133 21.895 21.9834 21.8467C21.6841 21.7451 21.4089 21.6194 21.1579 21.4792C20.6559 21.1939 20.2311 20.836 19.8642 20.425C19.5021 20.014 19.198 19.5498 18.9711 19.0131C18.8601 18.7471 18.7684 18.457 18.7008 18.1524C18.667 17.9976 18.6429 17.8381 18.6236 17.6688C18.5946 17.4996 18.5849 17.3255 18.5994 17.1321Z" fill="#D4BE29"/>
<path id="Vector_30" d="M19.594 12.5577C19.7871 12.5867 19.956 12.635 20.1153 12.6931C20.2746 12.7463 20.4243 12.8091 20.5691 12.8768C20.8539 13.0122 21.1146 13.1621 21.3511 13.3314C21.8242 13.6698 22.2056 14.0712 22.529 14.516C22.8476 14.9609 23.1035 15.459 23.2724 16.015C23.3545 16.2955 23.4173 16.5856 23.451 16.8999C23.4655 17.0595 23.4752 17.2191 23.4752 17.3883C23.4752 17.5575 23.4655 17.7365 23.4317 17.9299C23.2386 17.9009 23.0697 17.8525 22.9056 17.7993C22.7463 17.7461 22.5918 17.6833 22.4518 17.6204C22.167 17.485 21.9063 17.3351 21.6697 17.1659C21.2015 16.8274 20.8153 16.426 20.4967 15.9763C20.1781 15.5266 19.9271 15.0334 19.7581 14.4774C19.676 14.1969 19.6133 13.9068 19.5795 13.5925C19.565 13.4329 19.5554 13.2733 19.5554 13.1041C19.5505 12.9252 19.5602 12.7511 19.594 12.5577Z" fill="#F9ED32"/>
<path id="Vector_31" d="M24.74 8.48145C24.9234 8.54431 25.0827 8.62167 25.2324 8.70388C25.382 8.78608 25.5172 8.86828 25.6475 8.96016C25.9082 9.13907 26.1351 9.33732 26.3378 9.54041C26.7433 9.95626 27.0571 10.4156 27.2937 10.9088C27.5302 11.4021 27.6992 11.934 27.7716 12.5094C27.8054 12.7995 27.815 13.0993 27.7957 13.4136C27.786 13.5732 27.7667 13.7328 27.7329 13.902C27.704 14.0712 27.6605 14.2405 27.5978 14.4242C27.4143 14.3614 27.255 14.284 27.1054 14.2066C26.9557 14.1244 26.8157 14.0422 26.6854 13.9504C26.4247 13.7714 26.1978 13.5732 25.9951 13.3701C25.5896 12.9542 25.2807 12.4949 25.0393 11.9968C24.8027 11.4988 24.6386 10.9717 24.5662 10.3915C24.5324 10.1013 24.5228 9.80153 24.5421 9.48722C24.5517 9.32765 24.571 9.16808 24.6 8.99884C24.6338 8.83443 24.6724 8.66519 24.74 8.48145Z" fill="#F9ED32"/>
<path id="Vector_32" d="M13.0962 15.3429C13.2893 15.3284 13.4679 15.338 13.6369 15.3525C13.8058 15.367 13.9651 15.3961 14.1196 15.4251C14.4285 15.4879 14.7134 15.5798 14.9837 15.691C15.5195 15.9135 15.9829 16.2181 16.3981 16.5759C16.8133 16.9386 17.1705 17.3641 17.4601 17.867C17.6049 18.1184 17.7304 18.3892 17.8318 18.689C17.8849 18.8389 17.9284 18.9936 17.967 19.1629C18.0056 19.3273 18.0346 19.5014 18.0442 19.6996C17.8511 19.7141 17.6725 19.7045 17.5036 19.6899C17.3346 19.6754 17.1753 19.6513 17.0208 19.6174C16.7119 19.5546 16.4271 19.4627 16.1567 19.3515C15.6209 19.129 15.1575 18.8244 14.7423 18.4617C14.332 18.0991 13.9699 17.6736 13.6851 17.1707C13.5403 16.9192 13.4148 16.6484 13.3086 16.3486C13.2555 16.1987 13.212 16.044 13.1734 15.8796C13.1396 15.7104 13.1058 15.5363 13.0962 15.3429Z" fill="#F9ED32"/>
<path id="Vector_33" d="M10.3062 22.1125C10.4848 22.0303 10.6537 21.982 10.8179 21.9385C10.982 21.8949 11.1413 21.8659 11.2958 21.8417C11.6095 21.7982 11.9088 21.7837 12.1985 21.7934C12.7778 21.8176 13.3184 21.9385 13.8301 22.1367C14.3418 22.335 14.8246 22.6106 15.2687 22.9829C15.4907 23.1715 15.7031 23.3843 15.9011 23.626C16.0024 23.7469 16.099 23.8823 16.1907 24.0225C16.2824 24.1676 16.3693 24.3175 16.4465 24.4964C16.2679 24.5786 16.099 24.6318 15.9348 24.6753C15.7707 24.7188 15.6114 24.7527 15.4569 24.772C15.1432 24.8204 14.8439 24.8301 14.5542 24.8204C13.9749 24.7962 13.4343 24.6705 12.9226 24.4722C12.4109 24.274 11.9281 23.9984 11.484 23.626C11.262 23.4374 11.0496 23.2247 10.8516 22.9829C10.7503 22.862 10.6537 22.7266 10.562 22.5864C10.4703 22.4462 10.3834 22.2963 10.3062 22.1125Z" fill="#F9ED32"/>
<path id="Vector_34" d="M7.94092 16.8903C8.12918 16.8371 8.30297 16.8129 8.47193 16.7936C8.64088 16.7791 8.80501 16.7694 8.95949 16.7694C9.27327 16.7742 9.57256 16.8033 9.85738 16.8613C10.427 16.9725 10.9435 17.1804 11.4166 17.456C11.8945 17.7317 12.329 18.075 12.7103 18.5102C12.9034 18.7278 13.0772 18.9695 13.2365 19.2452C13.3138 19.3806 13.391 19.5256 13.4586 19.6804C13.5262 19.8351 13.5889 19.9995 13.642 20.1881C13.4538 20.2413 13.28 20.2654 13.111 20.2848C12.9421 20.3041 12.7779 20.309 12.6235 20.309C12.3097 20.3041 12.0104 20.2751 11.7256 20.2171C11.1559 20.101 10.6394 19.898 10.1663 19.6223C9.69325 19.3467 9.25879 18.9986 8.87742 18.5634C8.68433 18.3458 8.51055 18.104 8.35124 17.8284C8.26918 17.693 8.19677 17.5479 8.12918 17.3932C8.05195 17.2433 7.98919 17.0789 7.94092 16.8903Z" fill="#F9ED32"/>
<path id="Vector_35" d="M14.395 10.4446C14.5881 10.464 14.7619 10.5027 14.926 10.551C15.0902 10.5945 15.2446 10.6477 15.3895 10.7058C15.6839 10.8218 15.9494 10.962 16.1908 11.1168C16.6784 11.4311 17.0839 11.8082 17.4314 12.2386C17.7742 12.669 18.0542 13.1477 18.2521 13.6941C18.3486 13.9649 18.4259 14.2598 18.4741 14.5693C18.4983 14.724 18.5176 14.8884 18.5224 15.0577C18.5272 15.2269 18.5321 15.4058 18.5079 15.5992C18.3148 15.5799 18.1411 15.5412 17.9769 15.4977C17.8128 15.4542 17.6583 15.401 17.5135 15.343C17.219 15.2269 16.9535 15.0867 16.7122 14.9319C16.2246 14.6176 15.8191 14.2405 15.4764 13.8101C15.1336 13.3798 14.8536 12.9011 14.6605 12.3546C14.564 12.0839 14.4867 11.7889 14.4336 11.4794C14.4095 11.3247 14.3902 11.1603 14.3854 10.991C14.3709 10.8121 14.3709 10.6381 14.395 10.4446Z" fill="#F9ED32"/>
<path id="Vector_36" d="M19.84 6.58112C20.0283 6.62947 20.1924 6.69233 20.3469 6.76003C20.5014 6.82772 20.6462 6.90509 20.7814 6.98246C21.0565 7.14203 21.2979 7.3161 21.5151 7.50469C21.9544 7.88669 22.302 8.31704 22.582 8.79092C22.8619 9.26479 23.0695 9.78219 23.1854 10.3479C23.2433 10.6332 23.2771 10.933 23.2819 11.2473C23.2819 11.4069 23.2771 11.5665 23.2626 11.7357C23.2433 11.905 23.2192 12.079 23.1709 12.2676C22.9826 12.2193 22.8185 12.1564 22.6592 12.0887C22.5047 12.021 22.3599 11.9485 22.2199 11.8663C21.9448 11.7067 21.7034 11.5326 21.4862 11.344C21.0469 10.962 20.6993 10.5317 20.4241 10.053C20.149 9.5791 19.9414 9.06171 19.8256 8.49112C19.7676 8.20583 19.7338 7.90603 19.729 7.59173C19.729 7.43216 19.7338 7.27259 19.7483 7.10334C19.7676 6.94377 19.7918 6.7697 19.84 6.58112Z" fill="#F9ED32"/>
<path id="Vector_37" d="M28.3989 3.31714C28.5582 3.43319 28.6838 3.55408 28.8044 3.67496C28.9203 3.79585 29.0265 3.92157 29.123 4.04729C29.3161 4.29874 29.4754 4.55018 29.6058 4.8113C29.8713 5.32869 30.0306 5.86059 30.1078 6.407C30.1899 6.95341 30.1851 7.50465 30.0837 8.08007C30.0306 8.36536 29.9485 8.65549 29.8375 8.95045C29.7796 9.09552 29.712 9.24541 29.6347 9.39531C29.5527 9.54521 29.4658 9.69995 29.3499 9.85468C29.1906 9.73863 29.0651 9.61774 28.9444 9.49686C28.8286 9.37597 28.7176 9.25025 28.621 9.12936C28.4279 8.87792 28.2686 8.62647 28.1334 8.36536C27.8679 7.84797 27.7135 7.31607 27.6314 6.76966C27.5542 6.22325 27.5542 5.66717 27.6604 5.09659C27.7135 4.8113 27.7955 4.52117 27.9066 4.22621C27.9645 4.08114 28.0321 3.93124 28.1093 3.78134C28.1914 3.62661 28.2831 3.47187 28.3989 3.31714Z" fill="#F9ED32"/>
<path id="Vector_38" d="M4.52295 24.4674C4.68708 24.3611 4.84638 24.2837 5.00086 24.216C5.15533 24.1483 5.30981 24.0951 5.45946 24.0468C5.76358 23.9549 6.05322 23.8969 6.34286 23.863C6.91732 23.8002 7.47246 23.8388 8.0083 23.9549C8.54414 24.0709 9.06549 24.2692 9.55788 24.5738C9.80408 24.7237 10.0454 24.9026 10.282 25.1154C10.3978 25.2218 10.5137 25.3378 10.6247 25.4635C10.7358 25.5941 10.8468 25.7295 10.953 25.8939C10.7889 26.0003 10.6296 26.0777 10.4751 26.1454C10.3206 26.213 10.1661 26.2711 10.0165 26.3146C9.71236 26.4065 9.42271 26.4645 9.13307 26.4983C8.55862 26.5612 8.00347 26.5225 7.46764 26.4016C6.9318 26.2807 6.41527 26.0825 5.91805 25.7827C5.67186 25.6328 5.43049 25.4539 5.19395 25.2411C5.0781 25.1347 4.96224 25.0187 4.85121 24.893C4.74018 24.7672 4.62915 24.6319 4.52295 24.4674Z" fill="#F9ED32"/>
<path id="Vector_39" d="M54.3655 26.8949C54.1965 26.7934 54.0372 26.7208 53.8827 26.658C53.7234 26.5951 53.5738 26.5419 53.4193 26.4984C53.1152 26.4114 52.8207 26.363 52.5311 26.3388C51.9518 26.2905 51.4015 26.3437 50.8656 26.4742C50.3346 26.6048 49.8181 26.8175 49.3306 27.127C49.0844 27.2818 48.8478 27.4703 48.6209 27.6879C48.5051 27.7991 48.394 27.9152 48.283 28.0458C48.172 28.1763 48.0658 28.3165 47.9692 28.4858C48.1382 28.5873 48.2975 28.6599 48.452 28.7276C48.6113 28.7904 48.7658 28.8436 48.9154 28.8871C49.2195 28.9742 49.514 29.0225 49.8036 29.0515C50.3829 29.0999 50.9332 29.0467 51.4642 28.9113C51.9953 28.7759 52.5118 28.568 52.9993 28.2537C53.2455 28.0989 53.4821 27.9152 53.709 27.6976C53.8248 27.5864 53.9358 27.4703 54.0469 27.3398C54.1579 27.1996 54.2689 27.0642 54.3655 26.8949Z" fill="#D4BE29"/>
<path id="Vector_40" d="M54.6599 33.8772C54.5344 33.7273 54.404 33.6112 54.2737 33.5C54.1434 33.3936 54.013 33.2921 53.8827 33.2051C53.622 33.031 53.3565 32.8907 53.0862 32.7747C52.5503 32.5474 52.0097 32.4265 51.4642 32.3879C50.9187 32.3492 50.3635 32.3879 49.8036 32.5329C49.5236 32.6055 49.2388 32.707 48.9539 32.8424C48.8091 32.9101 48.6691 32.9875 48.5243 33.0793C48.3795 33.1712 48.2347 33.2679 48.0898 33.3985C48.2154 33.5484 48.3457 33.6693 48.476 33.7756C48.6064 33.8869 48.7367 33.9836 48.867 34.0706C49.1277 34.2447 49.3932 34.3897 49.6636 34.501C50.1994 34.7282 50.7401 34.8443 51.2856 34.8878C51.8311 34.9265 52.3862 34.883 52.9462 34.7379C53.2262 34.6654 53.511 34.5638 53.7958 34.4284C53.9406 34.3607 54.0806 34.2834 54.2254 34.1963C54.3702 34.1045 54.5151 34.0077 54.6599 33.8772Z" fill="#D4BE29"/>
<path id="Vector_41" d="M50.4503 30.9276C50.3055 30.7971 50.1606 30.6955 50.0158 30.6036C49.871 30.5118 49.731 30.4344 49.5862 30.3667C49.3014 30.2265 49.0214 30.1249 48.7414 30.0476C48.1814 29.8977 47.6263 29.8493 47.0808 29.8832C46.5305 29.917 45.9898 30.0331 45.454 30.2555C45.1836 30.3667 44.9181 30.5069 44.6575 30.6762C44.5271 30.7632 44.392 30.8599 44.2616 30.9663C44.1313 31.0775 44.0009 31.1936 43.8706 31.3435C44.0154 31.474 44.1602 31.5756 44.3051 31.6674C44.4499 31.7593 44.5899 31.8367 44.7347 31.9044C45.0195 32.0446 45.2995 32.1461 45.5795 32.2235C46.1395 32.3734 46.6946 32.4218 47.2401 32.3831C47.7904 32.3444 48.3311 32.2284 48.8669 32.0108C49.1372 31.8995 49.4028 31.7593 49.6634 31.5901C49.7938 31.503 49.9289 31.4063 50.0593 31.2999C50.1944 31.1887 50.3248 31.0727 50.4503 30.9276Z" fill="#009444"/>
<path id="Vector_42" d="M49.9918 36.5029C49.8807 36.3434 49.7649 36.2128 49.6442 36.0871C49.5283 35.9662 49.4077 35.855 49.2821 35.7534C49.0408 35.5504 48.7898 35.386 48.5339 35.2457C48.027 34.9653 47.5008 34.7912 46.9602 34.6945C46.4195 34.5978 45.8644 34.5833 45.2899 34.6703C45.0051 34.7138 44.7106 34.7864 44.4162 34.8927C44.2665 34.9459 44.1169 35.0088 43.9624 35.0813C43.8079 35.1587 43.6534 35.2409 43.4941 35.3569C43.6052 35.5165 43.721 35.6519 43.8369 35.7728C43.9527 35.8937 44.0734 36.0049 44.1941 36.1064C44.4355 36.3095 44.6865 36.4739 44.9423 36.6142C45.4492 36.8946 45.9754 37.0687 46.5209 37.1606C47.0616 37.2524 47.6167 37.2718 48.1912 37.1799C48.476 37.1364 48.7704 37.0639 49.0649 36.9575C49.2146 36.9043 49.3642 36.8414 49.5187 36.7689C49.678 36.7012 49.8325 36.619 49.9918 36.5029Z" fill="#009444"/>
<path id="Vector_43" d="M58.3095 16.8903C58.1212 16.8371 57.9475 16.8129 57.7785 16.7936C57.6095 16.7791 57.4454 16.7694 57.2909 16.7694C56.9772 16.7742 56.6779 16.8033 56.393 16.8613C55.8234 16.9725 55.3069 17.1804 54.8338 17.456C54.3559 17.7317 53.9214 18.075 53.5401 18.5102C53.347 18.7278 53.1732 18.9695 53.0139 19.2452C52.9367 19.3806 52.8594 19.5256 52.7918 19.6804C52.7243 19.8351 52.6615 19.9995 52.6084 20.1881C52.7967 20.2413 52.9705 20.2654 53.1394 20.2848C53.3084 20.3041 53.4725 20.309 53.627 20.309C53.9407 20.3041 54.24 20.2751 54.5249 20.2171C55.0945 20.101 55.611 19.898 56.0841 19.6223C56.5572 19.3467 56.9916 18.9986 57.373 18.5634C57.5661 18.3458 57.7399 18.104 57.8992 17.8284C57.9812 17.693 58.0537 17.5479 58.1212 17.3932C58.1985 17.2433 58.2612 17.0789 58.3095 16.8903Z" fill="#F9ED32"/>
<path id="Vector_44" d="M51.855 10.4446C51.6619 10.464 51.4881 10.5027 51.324 10.551C51.1598 10.5945 51.0053 10.6477 50.8605 10.7058C50.5661 10.8218 50.3006 10.962 50.0592 11.1168C49.5716 11.4311 49.1661 11.8082 48.8186 12.2386C48.4758 12.669 48.1958 13.1477 47.9979 13.6941C47.9014 13.9649 47.8241 14.2598 47.7758 14.5693C47.7517 14.724 47.7324 14.8884 47.7276 15.0577C47.7227 15.2269 47.7179 15.4058 47.7421 15.5992C47.9352 15.5799 48.1089 15.5412 48.2731 15.4977C48.4372 15.4542 48.5917 15.401 48.7365 15.343C49.031 15.2269 49.2965 15.0867 49.5378 14.9319C50.0254 14.6176 50.4309 14.2405 50.7736 13.8101C51.1164 13.3798 51.3964 12.9011 51.5895 12.3546C51.686 12.0839 51.7632 11.7889 51.8163 11.4794C51.8405 11.3247 51.8598 11.1603 51.8646 10.991C51.8791 10.8121 51.8791 10.6381 51.855 10.4446Z" fill="#F9ED32"/>
<path id="Vector_45" d="M46.4102 6.58112C46.2219 6.62947 46.0578 6.69233 45.9033 6.76003C45.7488 6.82772 45.604 6.90509 45.4688 6.98246C45.1937 7.14203 44.9523 7.3161 44.7351 7.50469C44.2958 7.88669 43.9482 8.31704 43.6682 8.79092C43.3882 9.26479 43.1807 9.78219 43.0648 10.3479C43.0069 10.6332 42.9731 10.933 42.9683 11.2473C42.9683 11.4069 42.9731 11.5665 42.9876 11.7357C43.0069 11.905 43.031 12.079 43.0793 12.2676C43.2676 12.2193 43.4317 12.1564 43.591 12.0887C43.7455 12.021 43.8903 11.9485 44.0303 11.8663C44.3054 11.7067 44.5468 11.5326 44.764 11.344C45.2033 10.962 45.5509 10.5317 45.826 10.053C46.1012 9.5791 46.3088 9.06171 46.4246 8.49112C46.4826 8.20583 46.5164 7.90603 46.5212 7.59173C46.5212 7.43216 46.5164 7.27259 46.5019 7.10334C46.4826 6.94377 46.4584 6.7697 46.4102 6.58112Z" fill="#F9ED32"/>
<path id="Vector_46" d="M37.851 3.31714C37.6917 3.43319 37.5662 3.55408 37.4455 3.67496C37.3296 3.79585 37.2234 3.92157 37.1269 4.04729C36.9338 4.29874 36.7745 4.55018 36.6442 4.8113C36.3787 5.32869 36.2193 5.86059 36.1421 6.407C36.06 6.95341 36.0649 7.50465 36.1662 8.08007C36.2193 8.36536 36.3014 8.65549 36.4124 8.95045C36.4704 9.09552 36.538 9.24541 36.6152 9.39531C36.6973 9.54521 36.7842 9.69995 36.9 9.85468C37.0593 9.73863 37.1848 9.61774 37.3055 9.49686C37.4214 9.37597 37.5324 9.25025 37.6289 9.12936C37.822 8.87792 37.9813 8.62647 38.1165 8.36536C38.382 7.84797 38.5365 7.31607 38.6186 6.76966C38.6958 6.22325 38.6958 5.66717 38.5896 5.09659C38.5365 4.8113 38.4544 4.52117 38.3434 4.22621C38.2855 4.08114 38.2179 3.93124 38.1406 3.78134C38.0538 3.62661 37.9669 3.47187 37.851 3.31714Z" fill="#F9ED32"/>
<path id="Vector_47" d="M61.7225 24.4674C61.5584 24.3611 61.3991 24.2837 61.2446 24.216C61.0901 24.1483 60.9357 24.0951 60.786 24.0468C60.4867 23.9549 60.1922 23.8969 59.9026 23.863C59.3281 23.8002 58.773 23.8388 58.2372 23.9549C57.7013 24.0709 57.18 24.2692 56.6876 24.5738C56.4414 24.7237 56.2 24.9026 55.9635 25.1154C55.8476 25.2218 55.7318 25.3378 55.6207 25.4635C55.5097 25.5941 55.3987 25.7295 55.2925 25.8939C55.4566 26.0003 55.6159 26.0777 55.7704 26.1454C55.9249 26.213 56.0793 26.2711 56.229 26.3146C56.5331 26.4065 56.8227 26.4645 57.1124 26.4983C57.6868 26.5612 58.242 26.5225 58.7778 26.4016C59.3137 26.2807 59.8302 26.0825 60.3274 25.7827C60.5736 25.6328 60.815 25.4539 61.0515 25.2411C61.1674 25.1347 61.2832 25.0187 61.3943 24.893C61.5101 24.7672 61.6211 24.6319 61.7225 24.4674Z" fill="#F9ED32"/>
<path id="Vector_48" d="M62.4076 35.3618C62.3062 35.1974 62.1952 35.0571 62.0841 34.9266C61.9731 34.8009 61.8573 34.6848 61.7414 34.5736C61.5097 34.3608 61.2683 34.1771 61.0221 34.0272C60.5297 33.7226 60.0132 33.5195 59.4774 33.3889C58.9415 33.2632 58.3912 33.2197 57.8119 33.2729C57.5223 33.3019 57.2278 33.3599 56.9237 33.4469C56.7741 33.4905 56.6196 33.5485 56.4603 33.6113C56.3058 33.679 56.1465 33.7516 55.9775 33.858C56.0789 34.0272 56.1899 34.1626 56.301 34.2931C56.412 34.4189 56.5279 34.5398 56.6437 34.6461C56.8754 34.8589 57.1168 35.0426 57.363 35.1925C57.8554 35.4972 58.3719 35.7003 58.9077 35.826C59.4436 35.9469 59.9939 35.9952 60.5732 35.9372C60.8628 35.9082 61.1573 35.8502 61.4614 35.7631C61.6111 35.7196 61.7655 35.6616 61.92 35.5987C62.0841 35.5407 62.2434 35.4682 62.4076 35.3618Z" fill="#F9ED32"/>
<path id="Vector_49" d="M59.7862 29.9944C59.651 29.8542 59.5158 29.743 59.3807 29.6366C59.2455 29.5351 59.1103 29.4432 58.9752 29.3658C58.7048 29.2062 58.4297 29.0805 58.1594 28.979C57.6139 28.7807 57.0684 28.6937 56.5181 28.6792C55.9677 28.6695 55.4174 28.7372 54.8671 28.9161C54.5919 29.0032 54.312 29.1192 54.0368 29.2739C53.8968 29.3513 53.7616 29.4335 53.6216 29.5351C53.4817 29.6318 53.3417 29.7381 53.2017 29.8784C53.3368 30.0186 53.472 30.1347 53.6072 30.2362C53.7423 30.3377 53.8775 30.4296 54.0127 30.507C54.283 30.6666 54.5582 30.7923 54.8285 30.8938C55.374 31.0921 55.9195 31.1791 56.4698 31.1888C57.0201 31.1985 57.5704 31.1259 58.1207 30.947C58.3959 30.86 58.6759 30.7439 58.951 30.5892C59.091 30.5118 59.2262 30.4296 59.3662 30.3329C59.511 30.2362 59.651 30.1298 59.7862 29.9944Z" fill="#F9ED32"/>
<path id="Vector_50" d="M57.6385 38.2775C57.5516 38.1034 57.4551 37.9583 57.3537 37.8181C57.2523 37.6827 57.151 37.557 57.0448 37.4361C56.8323 37.204 56.6103 37.0009 56.3786 36.8268C55.9152 36.4787 55.4179 36.2272 54.8966 36.058C54.3752 35.8839 53.8297 35.792 53.2505 35.7969C52.9608 35.8017 52.6615 35.8307 52.3526 35.8936C52.1981 35.9274 52.0388 35.9661 51.8795 36.0193C51.7154 36.0725 51.5512 36.1354 51.3774 36.2224C51.4643 36.3965 51.5609 36.5464 51.6574 36.6818C51.7588 36.8172 51.8602 36.9477 51.9664 37.0638C52.1788 37.2959 52.4008 37.499 52.6326 37.673C53.096 38.0212 53.5932 38.2678 54.1145 38.4419C54.6359 38.6111 55.1814 38.7078 55.7655 38.6982C56.0551 38.6933 56.3544 38.6643 56.6634 38.6014C56.8179 38.5724 56.9772 38.5289 57.1365 38.4806C57.3006 38.4274 57.4647 38.3693 57.6385 38.2775Z" fill="#F9ED32"/>
<path id="Vector_51" d="M12.2852 33.8772C12.4107 33.7273 12.541 33.6112 12.6713 33.5C12.8017 33.3936 12.932 33.2921 13.0624 33.2051C13.323 33.031 13.5885 32.8907 13.8589 32.7747C14.3947 32.5474 14.9354 32.4265 15.4809 32.3879C16.0264 32.3492 16.5815 32.3879 17.1415 32.5329C17.4215 32.6055 17.7063 32.707 17.9911 32.8424C18.1359 32.9101 18.2759 32.9875 18.4207 33.0793C18.5655 33.1712 18.7104 33.2679 18.8552 33.3985C18.7297 33.5484 18.5993 33.6693 18.469 33.7756C18.3387 33.8869 18.2083 33.9836 18.078 34.0706C17.8173 34.2447 17.5518 34.3897 17.2815 34.501C16.7456 34.7282 16.205 34.8443 15.6595 34.8878C15.114 34.9265 14.5588 34.883 13.9989 34.7379C13.7189 34.6654 13.4341 34.5638 13.1493 34.4284C13.0044 34.3607 12.8644 34.2834 12.7196 34.1963C12.5796 34.1045 12.4348 34.0077 12.2852 33.8772Z" fill="#D4BE29"/>
<path id="Vector_52" d="M16.958 36.5029C17.069 36.3434 17.1849 36.2128 17.3056 36.0871C17.4214 35.9662 17.5421 35.855 17.6676 35.7534C17.909 35.5504 18.16 35.386 18.4159 35.2457C18.9227 34.9653 19.4489 34.7912 19.9896 34.6945C20.5303 34.5978 21.0854 34.5833 21.6599 34.6703C21.9447 34.7138 22.2391 34.7864 22.5336 34.8927C22.6833 34.9459 22.8329 35.0088 22.9874 35.0813C23.1419 35.1587 23.2963 35.2409 23.4556 35.3569C23.3446 35.5165 23.2287 35.6519 23.1129 35.7728C22.997 35.8937 22.8763 36.0049 22.7557 36.1064C22.5143 36.3095 22.2633 36.4739 22.0074 36.6142C21.5005 36.8946 20.9744 37.0687 20.4289 37.1606C19.8882 37.2524 19.3331 37.2718 18.7586 37.1799C18.4738 37.1364 18.1793 37.0639 17.8849 36.9575C17.7352 36.9043 17.5856 36.8414 17.4311 36.7689C17.2718 36.7012 17.1173 36.619 16.958 36.5029Z" fill="#009444"/>
<path id="Vector_53" d="M4.54248 35.3618C4.64385 35.1974 4.75488 35.0571 4.86591 34.9266C4.97694 34.8009 5.0928 34.6848 5.20866 34.5736C5.44037 34.3608 5.68174 34.1771 5.92793 34.0272C6.42032 33.7226 6.93685 33.5195 7.47269 33.3889C8.00852 33.2632 8.55884 33.2197 9.13812 33.2729C9.42777 33.3019 9.72223 33.3599 10.0264 33.4469C10.176 33.4905 10.3305 33.5485 10.4898 33.6113C10.6443 33.679 10.8036 33.7516 10.9725 33.858C10.8711 34.0272 10.7601 34.1626 10.6491 34.2931C10.5381 34.4189 10.4222 34.5398 10.3063 34.6461C10.0746 34.8589 9.83326 35.0426 9.58707 35.1925C9.09468 35.4972 8.57815 35.7003 8.04231 35.826C7.50648 35.9469 6.95616 35.9952 6.37688 35.9372C6.08723 35.9082 5.79277 35.8502 5.48864 35.7631C5.33899 35.7196 5.18452 35.6616 5.03004 35.5987C4.86591 35.5407 4.70661 35.4682 4.54248 35.3618Z" fill="#F9ED32"/>
<path id="Vector_54" d="M9.31152 38.2775C9.39842 38.1034 9.49496 37.9583 9.59634 37.8181C9.69771 37.6827 9.79909 37.557 9.90529 37.4361C10.1177 37.204 10.3397 37.0009 10.5715 36.8268C11.0349 36.4787 11.5321 36.2272 12.0535 36.058C12.5748 35.8839 13.1203 35.792 13.6996 35.7969C13.9892 35.8017 14.2885 35.8307 14.5975 35.8936C14.7519 35.9274 14.9113 35.9661 15.0706 36.0193C15.2347 36.0725 15.3988 36.1354 15.5726 36.2224C15.4857 36.3965 15.3892 36.5464 15.2926 36.6818C15.1912 36.8172 15.0899 36.9477 14.9837 37.0638C14.7713 37.2959 14.5492 37.499 14.3175 37.673C13.8541 38.0212 13.3568 38.2678 12.8355 38.4419C12.3141 38.6111 11.7686 38.7078 11.1845 38.6982C10.8949 38.6933 10.5956 38.6643 10.2866 38.6014C10.1322 38.5724 9.97287 38.5289 9.81357 38.4806C9.64944 38.4274 9.48531 38.3693 9.31152 38.2775Z" fill="#F9ED32"/>
<path id="Vector_55" d="M15.7998 30.5891C15.9446 30.4586 16.0894 30.357 16.2343 30.2651C16.3791 30.1733 16.5191 30.0959 16.6639 30.0282C16.9487 29.888 17.2287 29.7864 17.5087 29.7091C18.0687 29.5592 18.6238 29.5108 19.1693 29.5447C19.7196 29.5785 20.2603 29.6946 20.7961 29.917C21.0665 30.0282 21.332 30.1684 21.5926 30.3377C21.723 30.4247 21.8581 30.5214 21.9885 30.6278C22.1188 30.739 22.2492 30.8551 22.3795 31.005C22.2347 31.1355 22.0899 31.2371 21.945 31.3289C21.8002 31.4208 21.6602 31.4982 21.5154 31.5659C21.2306 31.7061 20.9506 31.8077 20.6706 31.885C20.1106 32.0349 19.5555 32.0833 19.01 32.0446C18.4645 32.0059 17.919 31.8899 17.3832 31.6723C17.1128 31.561 16.8473 31.4208 16.5867 31.2516C16.4563 31.1645 16.3212 31.0678 16.1908 30.9614C16.0557 30.8551 15.9253 30.739 15.7998 30.5891Z" fill="#009444"/>
<path id="Vector_56" d="M22.9976 28.3551C23.181 28.2923 23.3548 28.2584 23.5237 28.2343C23.6927 28.2101 23.852 28.1907 24.0113 28.1859C24.3251 28.1714 24.6244 28.1907 24.914 28.2294C25.4885 28.3116 26.0147 28.4905 26.5022 28.7372C26.9898 28.9886 27.4436 29.3077 27.8491 29.7236C28.0518 29.9315 28.2401 30.1636 28.4139 30.4296C28.5007 30.5601 28.5828 30.7004 28.66 30.8551C28.7373 31.0098 28.8097 31.1694 28.8676 31.3531C28.6794 31.416 28.5104 31.4499 28.3414 31.4789C28.1725 31.503 28.0132 31.5224 27.8539 31.5272C27.5401 31.5417 27.2408 31.5272 26.9512 31.4837C26.3767 31.4015 25.8505 31.2226 25.363 30.9711C24.8754 30.7197 24.4216 30.3957 24.0161 29.9799C23.8134 29.7719 23.6251 29.5398 23.4513 29.2739C23.3644 29.1433 23.2824 29.0031 23.2051 28.8484C23.1327 28.7033 23.0555 28.5437 22.9976 28.3551Z" fill="#1C442A"/>
<path id="Vector_57" d="M44.7157 33.0263C44.5564 32.915 44.4019 32.8328 44.2474 32.7603C44.0929 32.6878 43.9433 32.6297 43.7936 32.5766C43.4943 32.475 43.2047 32.4073 42.9151 32.3638C42.3406 32.2816 41.7855 32.3058 41.2448 32.4073C40.7041 32.5089 40.1828 32.6878 39.6759 32.9731C39.4249 33.1181 39.1787 33.2874 38.9373 33.4905C38.8166 33.592 38.7008 33.7032 38.5801 33.8289C38.4642 33.9547 38.3484 34.0852 38.2422 34.2496C38.4015 34.3608 38.556 34.443 38.7104 34.5156C38.8649 34.5881 39.0146 34.651 39.1642 34.6993C39.4635 34.8009 39.7531 34.8686 40.0428 34.9121C40.6172 34.9943 41.1724 34.9701 41.7131 34.8686C42.2537 34.767 42.7751 34.5833 43.2819 34.298C43.533 34.1529 43.7792 33.9837 44.0205 33.7806C44.1412 33.679 44.2619 33.5678 44.3778 33.4421C44.4936 33.3212 44.6046 33.1907 44.7157 33.0263Z" fill="#1C442A"/>
<path id="Vector_58" d="M43.7597 28.3745C43.5763 28.3116 43.4025 28.2778 43.2335 28.2536C43.0646 28.2294 42.9053 28.2101 42.746 28.2053C42.4322 28.1907 42.1329 28.2101 41.8433 28.2488C41.2688 28.331 40.7426 28.5099 40.2551 28.7565C39.7675 29.0079 39.3137 29.3271 38.9082 29.7429C38.7055 29.9509 38.5172 30.183 38.3434 30.4489C38.2565 30.5795 38.1745 30.7197 38.0972 30.8744C38.02 31.0292 37.9476 31.1887 37.8896 31.3725C38.0779 31.4353 38.2469 31.4692 38.4158 31.4982C38.5848 31.5224 38.7441 31.5417 38.9034 31.5466C39.2172 31.5611 39.5165 31.5466 39.8061 31.503C40.3806 31.4208 40.9067 31.2419 41.3943 30.9905C41.8819 30.739 42.3356 30.4151 42.7411 29.9992C42.9439 29.7913 43.1322 29.5592 43.3059 29.2932C43.3928 29.1627 43.4749 29.0224 43.5521 28.8677C43.6294 28.7178 43.7018 28.5582 43.7597 28.3745Z" fill="#1C442A"/>
<path id="Vector_59" d="M6.4585 29.6559C6.59366 29.5156 6.72883 29.4044 6.86399 29.298C6.99916 29.1965 7.13433 29.1046 7.26949 29.0273C7.53982 28.8677 7.81498 28.742 8.08532 28.6404C8.63081 28.4422 9.1763 28.3551 9.72662 28.3406C10.2769 28.3309 10.8273 28.3986 11.3776 28.5776C11.6527 28.6646 11.9327 28.7806 12.2079 28.9354C12.3479 29.0128 12.483 29.095 12.623 29.1965C12.763 29.2932 12.903 29.3996 13.043 29.5398C12.9078 29.68 12.7727 29.7961 12.6375 29.8976C12.5023 29.9992 12.3672 30.0911 12.232 30.1684C11.9617 30.328 11.6865 30.4537 11.4162 30.5553C10.8707 30.7535 10.3252 30.8406 9.77489 30.8502C9.22457 30.8599 8.67425 30.7874 8.12393 30.6085C7.84877 30.5214 7.56879 30.4054 7.29363 30.2506C7.15364 30.1733 7.01847 30.0911 6.87848 29.9943C6.73848 29.8976 6.59849 29.7913 6.4585 29.6559Z" fill="#F9ED32"/>
</g>
</g>
</g>
</svg>
